M48
; DRILL file {KiCad 6.0.8} date Wed 02 Nov 2022 10:42:13 AM MSK
; FORMAT={-:-/ absolute / inch / decimal}
; #@! TF.CreationDate,2022-11-02T10:42:13+03:00
; #@! TF.GenerationSoftware,Kicad,Pcbnew,6.0.8
; #@! TF.FileFunction,Plated,1,2,PTH
FMAT,2
INCH
; #@! TA.AperFunction,Plated,PTH,ViaDrill
T1C0.0118
%
G90
G05
T1
X3.293Y-2.407
X3.3Y-2.246
X3.305Y-2.184
X3.3083Y-2.2733
X3.317Y-2.545
X3.323Y-2.165
X3.3241Y-2.4069
X3.3259Y-2.4903
X3.338Y-2.545
X3.35Y-2.159
X3.355Y-2.279
X3.359Y-2.545
X3.3662Y-2.461
X3.381Y-2.545
X3.4052Y-2.4775
X3.4184Y-2.3564
X3.4317Y-2.1645
X3.453Y-2.523
X3.482Y-2.5278
X3.514Y-2.242
X3.5204Y-2.4344
X3.5224Y-2.5133
X3.55Y-2.506
X3.5596Y-2.2645
X3.56Y-2.295
X3.599Y-2.44
X3.6038Y-2.2348
X3.647Y-2.445
X3.6509Y-2.542
X3.6657Y-2.2093
X3.683Y-2.299
X3.689Y-2.441
X3.704Y-2.299
X3.71Y-2.442
X3.7169Y-2.2379
X3.7299Y-2.2077
X3.732Y-2.442
X3.749Y-2.27
X3.773Y-2.18
X3.773Y-2.2
X3.814Y-2.55
X3.823Y-2.15
X3.847Y-2.15
X3.8554Y-2.3702
X3.867Y-2.263
X3.87Y-2.218
X3.87Y-2.241
X3.87Y-2.284
X3.871Y-2.304
X3.871Y-2.326
X3.871Y-2.412
T0
M30
