%TF.GenerationSoftware,KiCad,Pcbnew,6.0.8*%
%TF.CreationDate,2022-11-02T10:42:09+03:00*%
%TF.ProjectId,esplog_hv,6573706c-6f67-45f6-9876-2e6b69636164,rev?*%
%TF.SameCoordinates,Original*%
%TF.FileFunction,Copper,L2,Bot*%
%TF.FilePolarity,Positive*%
%FSLAX46Y46*%
G04 Gerber Fmt 4.6, Leading zero omitted, Abs format (unit mm)*
G04 Created by KiCad (PCBNEW 6.0.8) date 2022-11-02 10:42:09*
%MOMM*%
%LPD*%
G01*
G04 APERTURE LIST*
G04 Aperture macros list*
%AMRoundRect*
0 Rectangle with rounded corners*
0 $1 Rounding radius*
0 $2 $3 $4 $5 $6 $7 $8 $9 X,Y pos of 4 corners*
0 Add a 4 corners polygon primitive as box body*
4,1,4,$2,$3,$4,$5,$6,$7,$8,$9,$2,$3,0*
0 Add four circle primitives for the rounded corners*
1,1,$1+$1,$2,$3*
1,1,$1+$1,$4,$5*
1,1,$1+$1,$6,$7*
1,1,$1+$1,$8,$9*
0 Add four rect primitives between the rounded corners*
20,1,$1+$1,$2,$3,$4,$5,0*
20,1,$1+$1,$4,$5,$6,$7,0*
20,1,$1+$1,$6,$7,$8,$9,0*
20,1,$1+$1,$8,$9,$2,$3,0*%
G04 Aperture macros list end*
%TA.AperFunction,SMDPad,CuDef*%
%ADD10R,1.000000X1.000000*%
%TD*%
%TA.AperFunction,SMDPad,CuDef*%
%ADD11R,0.650000X1.050000*%
%TD*%
%TA.AperFunction,SMDPad,CuDef*%
%ADD12RoundRect,0.218750X-0.256250X0.218750X-0.256250X-0.218750X0.256250X-0.218750X0.256250X0.218750X0*%
%TD*%
%TA.AperFunction,ViaPad*%
%ADD13C,0.600000*%
%TD*%
%TA.AperFunction,Conductor*%
%ADD14C,0.200000*%
%TD*%
%TA.AperFunction,Conductor*%
%ADD15C,0.150000*%
%TD*%
G04 APERTURE END LIST*
D10*
%TO.P,TP7,1,1*%
%TO.N,GND*%
X86842600Y-54737000D03*
%TD*%
D11*
%TO.P,SW1,1,1*%
%TO.N,/D+*%
X88976200Y-55702200D03*
X88976200Y-59852200D03*
%TO.P,SW1,2,2*%
%TO.N,GND*%
X86826200Y-59852200D03*
X86826200Y-55702200D03*
%TD*%
D10*
%TO.P,TP4,1,1*%
%TO.N,/D-*%
X90855800Y-54737000D03*
%TD*%
%TO.P,TP5,1,1*%
%TO.N,VCC*%
X92862400Y-54737000D03*
%TD*%
%TO.P,TP2,1,1*%
%TO.N,/D+*%
X88874600Y-54737000D03*
%TD*%
%TO.P,TP1,1,1*%
%TO.N,/GP3*%
X85496400Y-62458600D03*
%TD*%
%TO.P,TP3,1,1*%
%TO.N,/GP4*%
X85496400Y-60426600D03*
%TD*%
D12*
%TO.P,D2,1,K*%
%TO.N,GND*%
X90170000Y-61442500D03*
%TO.P,D2,2,A*%
%TO.N,/LED*%
X90170000Y-63017500D03*
%TD*%
D10*
%TO.P,TP6,1,1*%
%TO.N,+3V3*%
X85496400Y-58420000D03*
%TD*%
%TO.P,TP8,1,1*%
%TO.N,Net-(TP8-Pad1)*%
X91795600Y-63068200D03*
%TD*%
D13*
%TO.N,Net-(TP8-Pad1)*%
X89469856Y-63838677D03*
%TO.N,GND*%
X98323400Y-61264800D03*
X94792800Y-62026800D03*
X84251800Y-64643000D03*
X94234000Y-62026800D03*
X84029900Y-57741829D03*
X98298000Y-56921400D03*
X87165000Y-54979200D03*
X84785200Y-64643000D03*
X94081600Y-58394600D03*
X91536400Y-56763800D03*
X85318600Y-64643000D03*
X83947000Y-55473600D03*
X83642200Y-61137800D03*
X93548200Y-58394600D03*
X84404200Y-54991000D03*
X98323400Y-58521600D03*
X98298000Y-58013600D03*
X86826200Y-59852200D03*
X97104200Y-54610000D03*
X98298000Y-56337200D03*
X98221800Y-57480200D03*
X89255600Y-56946800D03*
X97713800Y-54610000D03*
X98323400Y-59080400D03*
X89418050Y-61833650D03*
X85090000Y-54838600D03*
X85877400Y-64643000D03*
X93700600Y-62001400D03*
%TO.N,+3V3*%
X92633800Y-62103000D03*
X84431912Y-61136507D03*
X94409149Y-56842549D03*
X85217000Y-57886600D03*
X92733400Y-64566800D03*
X96875600Y-64770000D03*
X84478900Y-63253480D03*
%TO.N,Net-(C9-Pad2)*%
X91414600Y-61976000D03*
X83820000Y-57048400D03*
%TO.N,/D-*%
X90424000Y-58293000D03*
%TO.N,/D+*%
X90415046Y-57519344D03*
%TO.N,/SCL*%
X94739525Y-56075900D03*
X88442224Y-64206014D03*
%TO.N,/SDA*%
X87706200Y-64084200D03*
X93109650Y-56117100D03*
%TO.N,/LED*%
X90170000Y-63652400D03*
%TO.N,VCC*%
X95834200Y-55372000D03*
X95834200Y-55880000D03*
%TO.N,/GP3*%
X85501228Y-62510328D03*
%TO.N,/GP4*%
X86490900Y-62928379D03*
%TO.N,Net-(IC1-Pad4)*%
X95224600Y-57658000D03*
X97927800Y-60203500D03*
%TD*%
D14*
%TO.N,Net-(TP8-Pad1)*%
X90686400Y-64177400D02*
X91795600Y-63068200D01*
X89808579Y-64177400D02*
X90686400Y-64177400D01*
X89469856Y-63838677D02*
X89808579Y-64177400D01*
%TO.N,GND*%
X86826200Y-55318000D02*
X87165000Y-54979200D01*
D15*
X95101693Y-57073800D02*
X97561400Y-57073800D01*
X94081600Y-58394600D02*
X93548200Y-58394600D01*
D14*
X89809200Y-61442500D02*
X89418050Y-61833650D01*
D15*
X94081600Y-58093893D02*
X95101693Y-57073800D01*
D14*
X91536400Y-56763800D02*
X91871800Y-56428400D01*
X91871800Y-54102000D02*
X91998800Y-53975000D01*
X86826200Y-55702200D02*
X86826200Y-55318000D01*
X95608000Y-53975000D02*
X97969000Y-56336000D01*
X91998800Y-53975000D02*
X95608000Y-53975000D01*
D15*
X97561400Y-57073800D02*
X98323400Y-57835800D01*
D14*
X91871800Y-56428400D02*
X91871800Y-54102000D01*
X89255600Y-56946800D02*
X88070800Y-56946800D01*
X83642200Y-61137800D02*
X83642200Y-58129529D01*
X90170000Y-61442500D02*
X89809200Y-61442500D01*
X98500000Y-56336000D02*
X98501200Y-56337200D01*
X97969000Y-56336000D02*
X98500000Y-56336000D01*
D15*
X94081600Y-58394600D02*
X94081600Y-58093893D01*
D14*
X88070800Y-56946800D02*
X86826200Y-55702200D01*
X83642200Y-58129529D02*
X84029900Y-57741829D01*
X86826200Y-55702200D02*
X86826200Y-59852200D01*
%TO.N,+3V3*%
X84771400Y-60797019D02*
X84431912Y-61136507D01*
X84431912Y-63206492D02*
X84478900Y-63253480D01*
X92733400Y-64566800D02*
X96568800Y-64566800D01*
X85217000Y-57886600D02*
X84771400Y-58332200D01*
X92633800Y-62103000D02*
X92633800Y-58566537D01*
X84431912Y-61136507D02*
X84431912Y-63206492D01*
X96568800Y-64566800D02*
X96899000Y-64897000D01*
X94357788Y-56842549D02*
X94409149Y-56842549D01*
X84771400Y-58332200D02*
X84771400Y-60797019D01*
X92633800Y-58566537D02*
X94357788Y-56842549D01*
%TO.N,Net-(C9-Pad2)*%
X87833200Y-63214737D02*
X87181200Y-63866737D01*
X88925400Y-63159543D02*
X89880343Y-62204600D01*
X87181200Y-63866737D02*
X87181200Y-64301663D01*
X88967224Y-63988551D02*
X88925400Y-63946727D01*
X87833200Y-63068200D02*
X87833200Y-63214737D01*
X87181200Y-64301663D02*
X87610551Y-64731014D01*
X87610551Y-64731014D02*
X88659687Y-64731014D01*
X83820000Y-57048400D02*
X85574800Y-57048400D01*
X89880343Y-62204600D02*
X91186000Y-62204600D01*
X87833200Y-62280800D02*
X87833200Y-63068200D01*
X88925400Y-63946727D02*
X88925400Y-63159543D01*
X86276200Y-57749800D02*
X86276200Y-60723800D01*
X88967224Y-64423477D02*
X88967224Y-63988551D01*
X86276200Y-60723800D02*
X87833200Y-62280800D01*
X88659687Y-64731014D02*
X88967224Y-64423477D01*
X85574800Y-57048400D02*
X86276200Y-57749800D01*
X91186000Y-62204600D02*
X91414600Y-61976000D01*
%TO.N,/D-*%
X90940046Y-57776954D02*
X90940046Y-54821246D01*
X90424000Y-58293000D02*
X90940046Y-57776954D01*
X90940046Y-54821246D02*
X90855800Y-54737000D01*
D15*
%TO.N,/D+*%
X88976200Y-59852200D02*
X88976200Y-58958190D01*
X88976200Y-58958190D02*
X90415046Y-57519344D01*
D14*
X88976200Y-55924937D02*
X88976200Y-55702200D01*
X90415046Y-57363783D02*
X88976200Y-55924937D01*
X90415046Y-57519344D02*
X90415046Y-57363783D01*
D15*
%TO.N,/SCL*%
X88442224Y-62103074D02*
X88442224Y-64206014D01*
X94469398Y-56075900D02*
X88442224Y-62103074D01*
X94739525Y-56075900D02*
X94469398Y-56075900D01*
%TO.N,/SDA*%
X88167224Y-61972176D02*
X89077800Y-61061600D01*
X93109650Y-56998668D02*
X93109650Y-56117100D01*
X89077800Y-61030518D02*
X93109650Y-56998668D01*
X89077800Y-61061600D02*
X89077800Y-61030518D01*
X87706200Y-64084200D02*
X88167224Y-63623176D01*
X88167224Y-63623176D02*
X88167224Y-63398400D01*
X88167224Y-63398400D02*
X88167224Y-61972176D01*
D14*
%TO.N,VCC*%
X95199200Y-54737000D02*
X92862400Y-54737000D01*
X95834200Y-55372000D02*
X95834200Y-55880000D01*
X95834200Y-55372000D02*
X95199200Y-54737000D01*
%TO.N,/GP4*%
X86490900Y-62928379D02*
X86490900Y-61421100D01*
X86490900Y-61421100D02*
X85496400Y-60426600D01*
%TO.N,Net-(IC1-Pad4)*%
X97770100Y-60203500D02*
X97927800Y-60203500D01*
X95224600Y-57658000D02*
X97770100Y-60203500D01*
%TD*%
%TA.AperFunction,Conductor*%
%TO.N,GND*%
G36*
X98038585Y-54374794D02*
G01*
X98047075Y-54381628D01*
X98492924Y-54782892D01*
X98523529Y-54835873D01*
X98525676Y-54858494D01*
X98425000Y-59791600D01*
X98425019Y-59792580D01*
X98425019Y-59792605D01*
X98425601Y-59822567D01*
X98407827Y-59881114D01*
X98359034Y-59918031D01*
X98297860Y-59919219D01*
X98251622Y-59889111D01*
X98226993Y-59860528D01*
X98221076Y-59856693D01*
X98221074Y-59856691D01*
X98124624Y-59794177D01*
X98118706Y-59790341D01*
X98111950Y-59788321D01*
X98111949Y-59788320D01*
X98054888Y-59771255D01*
X97995073Y-59753366D01*
X97918444Y-59752898D01*
X97873082Y-59752621D01*
X97866031Y-59752578D01*
X97859254Y-59754515D01*
X97859253Y-59754515D01*
X97772262Y-59779377D01*
X97711116Y-59777188D01*
X97675053Y-59754192D01*
X95702784Y-57781924D01*
X95675007Y-57727407D01*
X95675160Y-57695496D01*
X95678962Y-57672894D01*
X95679597Y-57669120D01*
X95679733Y-57658000D01*
X95661439Y-57530259D01*
X95618794Y-57436466D01*
X95610949Y-57419212D01*
X95610948Y-57419211D01*
X95608028Y-57412788D01*
X95523793Y-57315028D01*
X95517876Y-57311193D01*
X95517874Y-57311191D01*
X95421424Y-57248677D01*
X95415506Y-57244841D01*
X95408750Y-57242821D01*
X95408749Y-57242820D01*
X95365935Y-57230016D01*
X95291873Y-57207866D01*
X95215244Y-57207398D01*
X95169882Y-57207121D01*
X95162831Y-57207078D01*
X95156054Y-57209015D01*
X95156053Y-57209015D01*
X95045535Y-57240601D01*
X95045533Y-57240602D01*
X95038755Y-57242539D01*
X94929619Y-57311399D01*
X94844196Y-57408122D01*
X94789354Y-57524932D01*
X94769501Y-57652440D01*
X94770416Y-57659437D01*
X94770416Y-57659438D01*
X94771682Y-57669120D01*
X94786233Y-57780394D01*
X94789071Y-57786845D01*
X94789072Y-57786847D01*
X94835364Y-57892054D01*
X94838205Y-57898510D01*
X94861966Y-57926777D01*
X94916700Y-57991892D01*
X94916703Y-57991894D01*
X94921239Y-57997291D01*
X95028660Y-58068796D01*
X95035388Y-58070898D01*
X95035390Y-58070899D01*
X95090246Y-58088037D01*
X95151833Y-58107278D01*
X95280855Y-58109643D01*
X95280802Y-58112537D01*
X95328609Y-58121753D01*
X95350750Y-58138410D01*
X96405202Y-59192863D01*
X97458296Y-60245957D01*
X97486456Y-60303126D01*
X97489433Y-60325894D01*
X97492273Y-60332348D01*
X97492274Y-60332352D01*
X97533639Y-60426361D01*
X97541405Y-60444010D01*
X97581008Y-60491123D01*
X97619900Y-60537392D01*
X97619903Y-60537394D01*
X97624439Y-60542791D01*
X97731860Y-60614296D01*
X97738588Y-60616398D01*
X97738590Y-60616399D01*
X97786142Y-60631255D01*
X97855033Y-60652778D01*
X97919544Y-60653961D01*
X97977002Y-60655014D01*
X97977004Y-60655014D01*
X97984055Y-60655143D01*
X97990858Y-60653288D01*
X97990860Y-60653288D01*
X98032628Y-60641900D01*
X98108555Y-60621200D01*
X98218524Y-60553679D01*
X98249944Y-60518967D01*
X98267618Y-60499441D01*
X98320686Y-60468987D01*
X98381520Y-60475542D01*
X98426882Y-60516602D01*
X98439997Y-60563955D01*
X98460274Y-61608211D01*
X98475800Y-62407800D01*
X98481812Y-62418488D01*
X98678058Y-62767369D01*
X98704400Y-62814200D01*
X98713884Y-62814652D01*
X98713886Y-62814652D01*
X98849861Y-62821126D01*
X98893009Y-62823181D01*
X98950234Y-62844835D01*
X98983803Y-62895989D01*
X98987300Y-62922069D01*
X98987300Y-65080900D01*
X98968393Y-65139091D01*
X98918893Y-65175055D01*
X98888300Y-65179900D01*
X97333094Y-65179900D01*
X97274903Y-65160993D01*
X97238939Y-65111493D01*
X97238939Y-65050307D01*
X97249889Y-65027858D01*
X97252922Y-65024507D01*
X97262832Y-65004054D01*
X97306112Y-64914724D01*
X97306112Y-64914723D01*
X97309188Y-64908375D01*
X97330597Y-64781120D01*
X97330733Y-64770000D01*
X97312439Y-64642259D01*
X97272431Y-64554266D01*
X97261949Y-64531212D01*
X97261948Y-64531211D01*
X97259028Y-64524788D01*
X97180570Y-64433732D01*
X97179398Y-64432372D01*
X97179397Y-64432371D01*
X97174793Y-64427028D01*
X97168876Y-64423193D01*
X97168874Y-64423191D01*
X97089858Y-64371977D01*
X97066506Y-64356841D01*
X97059750Y-64354821D01*
X97059749Y-64354820D01*
X97010663Y-64340140D01*
X96942873Y-64319866D01*
X96866244Y-64319398D01*
X96820882Y-64319121D01*
X96813831Y-64319078D01*
X96807055Y-64321015D01*
X96807052Y-64321015D01*
X96740135Y-64340140D01*
X96675044Y-64336415D01*
X96674648Y-64336251D01*
X96666541Y-64330834D01*
X96568800Y-64311392D01*
X96559238Y-64313294D01*
X96553688Y-64314398D01*
X96534374Y-64316300D01*
X93157650Y-64316300D01*
X93099459Y-64297393D01*
X93082651Y-64281923D01*
X93037198Y-64229172D01*
X93037197Y-64229171D01*
X93032593Y-64223828D01*
X93026676Y-64219993D01*
X93026674Y-64219991D01*
X92930224Y-64157477D01*
X92924306Y-64153641D01*
X92917550Y-64151621D01*
X92917549Y-64151620D01*
X92874735Y-64138816D01*
X92800673Y-64116666D01*
X92724044Y-64116198D01*
X92678682Y-64115921D01*
X92671631Y-64115878D01*
X92664854Y-64117815D01*
X92664853Y-64117815D01*
X92554335Y-64149401D01*
X92554333Y-64149402D01*
X92547555Y-64151339D01*
X92438419Y-64220199D01*
X92352996Y-64316922D01*
X92298154Y-64433732D01*
X92278301Y-64561240D01*
X92295033Y-64689194D01*
X92297871Y-64695645D01*
X92297872Y-64695647D01*
X92330588Y-64770000D01*
X92347005Y-64807310D01*
X92382775Y-64849864D01*
X92425500Y-64900692D01*
X92425503Y-64900694D01*
X92430039Y-64906091D01*
X92537460Y-64977596D01*
X92544187Y-64979698D01*
X92544192Y-64979700D01*
X92565652Y-64986404D01*
X92615557Y-65021804D01*
X92635124Y-65079776D01*
X92616878Y-65138178D01*
X92567789Y-65174701D01*
X92536130Y-65179900D01*
X88692173Y-65179900D01*
X88665985Y-65171391D01*
X88627201Y-65179900D01*
X87643037Y-65179900D01*
X87616847Y-65171391D01*
X87578065Y-65179900D01*
X83001100Y-65179900D01*
X82942909Y-65160993D01*
X82906945Y-65111493D01*
X82902100Y-65080900D01*
X82902100Y-59331800D01*
X82921007Y-59273609D01*
X82970507Y-59237645D01*
X83001100Y-59232800D01*
X83997800Y-59232800D01*
X83997830Y-59227696D01*
X84009656Y-59223853D01*
X84035131Y-59205345D01*
X84063593Y-59200523D01*
X84419771Y-59192863D01*
X84478355Y-59210515D01*
X84515375Y-59259230D01*
X84520900Y-59291840D01*
X84520900Y-60586899D01*
X84501993Y-60645090D01*
X84452493Y-60681054D01*
X84421296Y-60685897D01*
X84377195Y-60685628D01*
X84370143Y-60685585D01*
X84363366Y-60687522D01*
X84363365Y-60687522D01*
X84252847Y-60719108D01*
X84252845Y-60719109D01*
X84246067Y-60721046D01*
X84136931Y-60789906D01*
X84051508Y-60886629D01*
X83996666Y-61003439D01*
X83976813Y-61130947D01*
X83993545Y-61258901D01*
X83996383Y-61265352D01*
X83996384Y-61265354D01*
X84030329Y-61342500D01*
X84045517Y-61377017D01*
X84087034Y-61426408D01*
X84124012Y-61470399D01*
X84124015Y-61470401D01*
X84128551Y-61475798D01*
X84134421Y-61479705D01*
X84134425Y-61479709D01*
X84137268Y-61481601D01*
X84139024Y-61483821D01*
X84139681Y-61484408D01*
X84139579Y-61484522D01*
X84175232Y-61529584D01*
X84181412Y-61564013D01*
X84181412Y-62872259D01*
X84162505Y-62930450D01*
X84156616Y-62937794D01*
X84098496Y-63003602D01*
X84043654Y-63120412D01*
X84023801Y-63247920D01*
X84024716Y-63254917D01*
X84024716Y-63254918D01*
X84026383Y-63267669D01*
X84040533Y-63375874D01*
X84043371Y-63382325D01*
X84043372Y-63382327D01*
X84077297Y-63459428D01*
X84092505Y-63493990D01*
X84131718Y-63540639D01*
X84171000Y-63587372D01*
X84171003Y-63587374D01*
X84175539Y-63592771D01*
X84282960Y-63664276D01*
X84289688Y-63666378D01*
X84289690Y-63666379D01*
X84344547Y-63683517D01*
X84406133Y-63702758D01*
X84470644Y-63703940D01*
X84528102Y-63704994D01*
X84528104Y-63704994D01*
X84535155Y-63705123D01*
X84541958Y-63703268D01*
X84541960Y-63703268D01*
X84587500Y-63690852D01*
X84659655Y-63671180D01*
X84769624Y-63603659D01*
X84784366Y-63587372D01*
X84851490Y-63513215D01*
X84851490Y-63513214D01*
X84856222Y-63507987D01*
X84912488Y-63391855D01*
X84932778Y-63271251D01*
X84933263Y-63268371D01*
X84933263Y-63268366D01*
X84933897Y-63264600D01*
X84934033Y-63253480D01*
X84929544Y-63222135D01*
X84940011Y-63161851D01*
X84983912Y-63119233D01*
X85027544Y-63109100D01*
X86011220Y-63109100D01*
X86011220Y-63110977D01*
X86063576Y-63122475D01*
X86095302Y-63158085D01*
X86097937Y-63156445D01*
X86101664Y-63162432D01*
X86104505Y-63168889D01*
X86146022Y-63218279D01*
X86183000Y-63262271D01*
X86183003Y-63262273D01*
X86187539Y-63267670D01*
X86294960Y-63339175D01*
X86301688Y-63341277D01*
X86301690Y-63341278D01*
X86329938Y-63350103D01*
X86418133Y-63377657D01*
X86482644Y-63378839D01*
X86540102Y-63379893D01*
X86540104Y-63379893D01*
X86547155Y-63380022D01*
X86553958Y-63378167D01*
X86553960Y-63378167D01*
X86604312Y-63364439D01*
X86671655Y-63346079D01*
X86781624Y-63278558D01*
X86803022Y-63254918D01*
X86863490Y-63188114D01*
X86863490Y-63188113D01*
X86868222Y-63182886D01*
X86903971Y-63109100D01*
X86921412Y-63073103D01*
X86921412Y-63073102D01*
X86924488Y-63066754D01*
X86945897Y-62939499D01*
X86946033Y-62928379D01*
X86927739Y-62800638D01*
X86874328Y-62683167D01*
X86790093Y-62585407D01*
X86784178Y-62581573D01*
X86778858Y-62576932D01*
X86780249Y-62575338D01*
X86748010Y-62535606D01*
X86741400Y-62500037D01*
X86741400Y-61782268D01*
X86760307Y-61724077D01*
X86809807Y-61688113D01*
X86870993Y-61688113D01*
X86910403Y-61712264D01*
X87553704Y-62355565D01*
X87581481Y-62410082D01*
X87582700Y-62425569D01*
X87582700Y-63069969D01*
X87563793Y-63128160D01*
X87553704Y-63139973D01*
X87028413Y-63665264D01*
X87013410Y-63677576D01*
X87000599Y-63686136D01*
X86966213Y-63737599D01*
X86945234Y-63768996D01*
X86925792Y-63866737D01*
X86927694Y-63876299D01*
X86928798Y-63881849D01*
X86930700Y-63901163D01*
X86930700Y-64267237D01*
X86928798Y-64286551D01*
X86925792Y-64301663D01*
X86927694Y-64311225D01*
X86943175Y-64389051D01*
X86945234Y-64399404D01*
X86950653Y-64407514D01*
X86961267Y-64423399D01*
X86967555Y-64432809D01*
X87000599Y-64482264D01*
X87008708Y-64487682D01*
X87008709Y-64487683D01*
X87013410Y-64490824D01*
X87028413Y-64503136D01*
X87409078Y-64883801D01*
X87421390Y-64898804D01*
X87422652Y-64900692D01*
X87429950Y-64911615D01*
X87438059Y-64917033D01*
X87483012Y-64947069D01*
X87483014Y-64947072D01*
X87483015Y-64947071D01*
X87512810Y-64966980D01*
X87566180Y-64977596D01*
X87597379Y-64983802D01*
X87608931Y-64990271D01*
X87623718Y-64983803D01*
X87625658Y-64983417D01*
X87644977Y-64981514D01*
X88625261Y-64981514D01*
X88644580Y-64983417D01*
X88646520Y-64983803D01*
X88658069Y-64990271D01*
X88672859Y-64983802D01*
X88704058Y-64977596D01*
X88757428Y-64966980D01*
X88787223Y-64947071D01*
X88787223Y-64947072D01*
X88787226Y-64947069D01*
X88832179Y-64917033D01*
X88840288Y-64911615D01*
X88847587Y-64900692D01*
X88848848Y-64898804D01*
X88861160Y-64883801D01*
X89120011Y-64624950D01*
X89135014Y-64612638D01*
X89139715Y-64609497D01*
X89139716Y-64609496D01*
X89147825Y-64604078D01*
X89192224Y-64537629D01*
X89203190Y-64521218D01*
X89222632Y-64423477D01*
X89219626Y-64408365D01*
X89217724Y-64389051D01*
X89217724Y-64366567D01*
X89236631Y-64308376D01*
X89286131Y-64272412D01*
X89346246Y-64272071D01*
X89390356Y-64285852D01*
X89390360Y-64285853D01*
X89397089Y-64287955D01*
X89526111Y-64290320D01*
X89526058Y-64293214D01*
X89573865Y-64302430D01*
X89596003Y-64319085D01*
X89607110Y-64330192D01*
X89619418Y-64345190D01*
X89627978Y-64358001D01*
X89648895Y-64371977D01*
X89648896Y-64371978D01*
X89710839Y-64413366D01*
X89808579Y-64432809D01*
X89818141Y-64430907D01*
X89818147Y-64430907D01*
X89823695Y-64429803D01*
X89843010Y-64427900D01*
X90651974Y-64427900D01*
X90671288Y-64429802D01*
X90686400Y-64432808D01*
X90695962Y-64430906D01*
X90774576Y-64415269D01*
X90774578Y-64415268D01*
X90784141Y-64413366D01*
X90792900Y-64407514D01*
X90824799Y-64386199D01*
X90858891Y-64363420D01*
X90858892Y-64363419D01*
X90867001Y-64358001D01*
X90875561Y-64345190D01*
X90887873Y-64330187D01*
X91470365Y-63747696D01*
X91524882Y-63719919D01*
X91540369Y-63718700D01*
X92310420Y-63718700D01*
X92315178Y-63717753D01*
X92315183Y-63717753D01*
X92344761Y-63711869D01*
X92344762Y-63711869D01*
X92354322Y-63709967D01*
X92404104Y-63676704D01*
X92420384Y-63652339D01*
X92431951Y-63635028D01*
X92431951Y-63635027D01*
X92437367Y-63626922D01*
X92441260Y-63607351D01*
X92445153Y-63587783D01*
X92445153Y-63587778D01*
X92446100Y-63583020D01*
X92446100Y-62648975D01*
X92465007Y-62590784D01*
X92514507Y-62554820D01*
X92558366Y-62551445D01*
X92561033Y-62552278D01*
X92619358Y-62553347D01*
X92683002Y-62554514D01*
X92683004Y-62554514D01*
X92690055Y-62554643D01*
X92696858Y-62552788D01*
X92696860Y-62552788D01*
X92738628Y-62541400D01*
X92814555Y-62520700D01*
X92924524Y-62453179D01*
X92957089Y-62417202D01*
X93006390Y-62362735D01*
X93006390Y-62362734D01*
X93011122Y-62357507D01*
X93067388Y-62241375D01*
X93088797Y-62114120D01*
X93088933Y-62103000D01*
X93070639Y-61975259D01*
X93036365Y-61899878D01*
X93020149Y-61864212D01*
X93020148Y-61864211D01*
X93017228Y-61857788D01*
X92932993Y-61760028D01*
X92927078Y-61756194D01*
X92921758Y-61751553D01*
X92923149Y-61749959D01*
X92890910Y-61710227D01*
X92884300Y-61674658D01*
X92884300Y-58711305D01*
X92903207Y-58653114D01*
X92913296Y-58641301D01*
X94238080Y-57316517D01*
X94292597Y-57288740D01*
X94323911Y-57288794D01*
X94329647Y-57289723D01*
X94336382Y-57291827D01*
X94405983Y-57293103D01*
X94458351Y-57294063D01*
X94458353Y-57294063D01*
X94465404Y-57294192D01*
X94472207Y-57292337D01*
X94472209Y-57292337D01*
X94538351Y-57274304D01*
X94589904Y-57260249D01*
X94699873Y-57192728D01*
X94786471Y-57097056D01*
X94842737Y-56980924D01*
X94855466Y-56905262D01*
X94863512Y-56857440D01*
X94863512Y-56857435D01*
X94864146Y-56853669D01*
X94864282Y-56842549D01*
X94845988Y-56714808D01*
X94812843Y-56641909D01*
X94805970Y-56581112D01*
X94836145Y-56527885D01*
X94876925Y-56505420D01*
X94920280Y-56493600D01*
X95030249Y-56426079D01*
X95056926Y-56396607D01*
X95112115Y-56335635D01*
X95112115Y-56335634D01*
X95116847Y-56330407D01*
X95173113Y-56214275D01*
X95187591Y-56128220D01*
X95193888Y-56090791D01*
X95193888Y-56090786D01*
X95194522Y-56087020D01*
X95194658Y-56075900D01*
X95176364Y-55948159D01*
X95122953Y-55830688D01*
X95038718Y-55732928D01*
X95032801Y-55729093D01*
X95032799Y-55729091D01*
X94936349Y-55666577D01*
X94930431Y-55662741D01*
X94923675Y-55660721D01*
X94923674Y-55660720D01*
X94880694Y-55647866D01*
X94806798Y-55625766D01*
X94730169Y-55625298D01*
X94684807Y-55625021D01*
X94677756Y-55624978D01*
X94670979Y-55626915D01*
X94670978Y-55626915D01*
X94560460Y-55658501D01*
X94560458Y-55658502D01*
X94553680Y-55660439D01*
X94547716Y-55664202D01*
X94543335Y-55666966D01*
X94444544Y-55729299D01*
X94359121Y-55826022D01*
X94356126Y-55832402D01*
X94356123Y-55832406D01*
X94333414Y-55880776D01*
X94312096Y-55906566D01*
X94313456Y-55907790D01*
X94306492Y-55915525D01*
X94298075Y-55921640D01*
X94292872Y-55930652D01*
X94287089Y-55937075D01*
X94279738Y-55946655D01*
X93504154Y-56722239D01*
X93449637Y-56750016D01*
X93389205Y-56740445D01*
X93345940Y-56697180D01*
X93335150Y-56652235D01*
X93335150Y-56562712D01*
X93354057Y-56504521D01*
X93382347Y-56478348D01*
X93400374Y-56467279D01*
X93437510Y-56426252D01*
X93482240Y-56376835D01*
X93482240Y-56376834D01*
X93486972Y-56371607D01*
X93543238Y-56255475D01*
X93562710Y-56139735D01*
X93564013Y-56131991D01*
X93564013Y-56131986D01*
X93564647Y-56128220D01*
X93564783Y-56117100D01*
X93546489Y-55989359D01*
X93500085Y-55887299D01*
X93495999Y-55878312D01*
X93495998Y-55878311D01*
X93493078Y-55871888D01*
X93408843Y-55774128D01*
X93402926Y-55770293D01*
X93402924Y-55770291D01*
X93306474Y-55707777D01*
X93300556Y-55703941D01*
X93293800Y-55701921D01*
X93293799Y-55701920D01*
X93250985Y-55689116D01*
X93176923Y-55666966D01*
X93100294Y-55666498D01*
X93054932Y-55666221D01*
X93047881Y-55666178D01*
X93041104Y-55668115D01*
X93041103Y-55668115D01*
X92930585Y-55699701D01*
X92930583Y-55699702D01*
X92923805Y-55701639D01*
X92814669Y-55770499D01*
X92729246Y-55867222D01*
X92674404Y-55984032D01*
X92654551Y-56111540D01*
X92655466Y-56118537D01*
X92655466Y-56118538D01*
X92656430Y-56125909D01*
X92671283Y-56239494D01*
X92674121Y-56245945D01*
X92674122Y-56245947D01*
X92720414Y-56351154D01*
X92723255Y-56357610D01*
X92764516Y-56406696D01*
X92801750Y-56450992D01*
X92801753Y-56450994D01*
X92806289Y-56456391D01*
X92839271Y-56478345D01*
X92840007Y-56478835D01*
X92877971Y-56526818D01*
X92884150Y-56561247D01*
X92884150Y-56864254D01*
X92865243Y-56922445D01*
X92855154Y-56934258D01*
X91190087Y-58599326D01*
X89620704Y-60168709D01*
X89566187Y-60196486D01*
X89505755Y-60186915D01*
X89462490Y-60143650D01*
X89451700Y-60098705D01*
X89451700Y-59312380D01*
X89442967Y-59268478D01*
X89409704Y-59218696D01*
X89371042Y-59192863D01*
X89368028Y-59190849D01*
X89368027Y-59190849D01*
X89359922Y-59185433D01*
X89350362Y-59183531D01*
X89350361Y-59183531D01*
X89320783Y-59177647D01*
X89320778Y-59177647D01*
X89316020Y-59176700D01*
X89311163Y-59176700D01*
X89306318Y-59176223D01*
X89306560Y-59173762D01*
X89257413Y-59157793D01*
X89221449Y-59108293D01*
X89221449Y-59047107D01*
X89245600Y-59007696D01*
X89838158Y-58415138D01*
X89892675Y-58387361D01*
X89953107Y-58396932D01*
X89998778Y-58445270D01*
X90034764Y-58527054D01*
X90037605Y-58533510D01*
X90062698Y-58563362D01*
X90116100Y-58626892D01*
X90116103Y-58626894D01*
X90120639Y-58632291D01*
X90228060Y-58703796D01*
X90234788Y-58705898D01*
X90234790Y-58705899D01*
X90279644Y-58719912D01*
X90351233Y-58742278D01*
X90415744Y-58743461D01*
X90473202Y-58744514D01*
X90473204Y-58744514D01*
X90480255Y-58744643D01*
X90487058Y-58742788D01*
X90487060Y-58742788D01*
X90528828Y-58731400D01*
X90604755Y-58710700D01*
X90714724Y-58643179D01*
X90724579Y-58632291D01*
X90796590Y-58552735D01*
X90796590Y-58552734D01*
X90801322Y-58547507D01*
X90857588Y-58431375D01*
X90878997Y-58304120D01*
X90879133Y-58293000D01*
X90873517Y-58253785D01*
X90883984Y-58193502D01*
X90901513Y-58169747D01*
X91092833Y-57978427D01*
X91107836Y-57966115D01*
X91112537Y-57962974D01*
X91112538Y-57962973D01*
X91120647Y-57957555D01*
X91172573Y-57879841D01*
X91176012Y-57874695D01*
X91195454Y-57776954D01*
X91192448Y-57761842D01*
X91190546Y-57742528D01*
X91190546Y-55486500D01*
X91209453Y-55428309D01*
X91258953Y-55392345D01*
X91289546Y-55387500D01*
X91370620Y-55387500D01*
X91375378Y-55386553D01*
X91375383Y-55386553D01*
X91404961Y-55380669D01*
X91404962Y-55380669D01*
X91414522Y-55378767D01*
X91423031Y-55373082D01*
X91456194Y-55350923D01*
X91464304Y-55345504D01*
X91497567Y-55295722D01*
X91506300Y-55251820D01*
X91506300Y-54960234D01*
X91525207Y-54902043D01*
X91574707Y-54866079D01*
X91605595Y-54861234D01*
X92113196Y-54862749D01*
X92171330Y-54881830D01*
X92207145Y-54931437D01*
X92211900Y-54961749D01*
X92211900Y-55251820D01*
X92220633Y-55295722D01*
X92253896Y-55345504D01*
X92262006Y-55350923D01*
X92295170Y-55373082D01*
X92303678Y-55378767D01*
X92313238Y-55380669D01*
X92313239Y-55380669D01*
X92342817Y-55386553D01*
X92342822Y-55386553D01*
X92347580Y-55387500D01*
X93377220Y-55387500D01*
X93381978Y-55386553D01*
X93381983Y-55386553D01*
X93411561Y-55380669D01*
X93411562Y-55380669D01*
X93421122Y-55378767D01*
X93429631Y-55373082D01*
X93462794Y-55350923D01*
X93470904Y-55345504D01*
X93504167Y-55295722D01*
X93512900Y-55251820D01*
X93512900Y-55086500D01*
X93531807Y-55028309D01*
X93581307Y-54992345D01*
X93611900Y-54987500D01*
X95054433Y-54987500D01*
X95112624Y-55006407D01*
X95124437Y-55016497D01*
X95356385Y-55248446D01*
X95384162Y-55302962D01*
X95384202Y-55333678D01*
X95379101Y-55366440D01*
X95380016Y-55373437D01*
X95380016Y-55373438D01*
X95380962Y-55380669D01*
X95395833Y-55494394D01*
X95398671Y-55500845D01*
X95398672Y-55500847D01*
X95436575Y-55586988D01*
X95442705Y-55647866D01*
X95435574Y-55668933D01*
X95398954Y-55746932D01*
X95379101Y-55874440D01*
X95380016Y-55881437D01*
X95380016Y-55881438D01*
X95381282Y-55891120D01*
X95395833Y-56002394D01*
X95398671Y-56008845D01*
X95398672Y-56008847D01*
X95443858Y-56111540D01*
X95447805Y-56120510D01*
X95489322Y-56169901D01*
X95526300Y-56213892D01*
X95526303Y-56213894D01*
X95530839Y-56219291D01*
X95638260Y-56290796D01*
X95644988Y-56292898D01*
X95644990Y-56292899D01*
X95699846Y-56310037D01*
X95761433Y-56329278D01*
X95825944Y-56330460D01*
X95883402Y-56331514D01*
X95883404Y-56331514D01*
X95890455Y-56331643D01*
X95897258Y-56329788D01*
X95897260Y-56329788D01*
X95957581Y-56313342D01*
X96014955Y-56297700D01*
X96124924Y-56230179D01*
X96211522Y-56134507D01*
X96267788Y-56018375D01*
X96281466Y-55937075D01*
X96288563Y-55894891D01*
X96288563Y-55894886D01*
X96289197Y-55891120D01*
X96289333Y-55880000D01*
X96271039Y-55752259D01*
X96232781Y-55668115D01*
X96231968Y-55666327D01*
X96225095Y-55605529D01*
X96232996Y-55582185D01*
X96264712Y-55516724D01*
X96264712Y-55516723D01*
X96267788Y-55510375D01*
X96278796Y-55444941D01*
X96288563Y-55386891D01*
X96288563Y-55386886D01*
X96289197Y-55383120D01*
X96289333Y-55372000D01*
X96271039Y-55244259D01*
X96217628Y-55126788D01*
X96133393Y-55029028D01*
X96127476Y-55025193D01*
X96127474Y-55025191D01*
X96031024Y-54962677D01*
X96025106Y-54958841D01*
X96018350Y-54956821D01*
X96018349Y-54956820D01*
X95974252Y-54943632D01*
X95901473Y-54921866D01*
X95777978Y-54921112D01*
X95719903Y-54901850D01*
X95708578Y-54892118D01*
X95400673Y-54584213D01*
X95388361Y-54569210D01*
X95385218Y-54564506D01*
X95385217Y-54564505D01*
X95379801Y-54556399D01*
X95371693Y-54550981D01*
X95364799Y-54544088D01*
X95366000Y-54542887D01*
X95335268Y-54503910D01*
X95332861Y-54442772D01*
X95366850Y-54391895D01*
X95427587Y-54370639D01*
X96735393Y-54363250D01*
X97980290Y-54356216D01*
X98038585Y-54374794D01*
G37*
%TD.AperFunction*%
%TA.AperFunction,Conductor*%
G36*
X89440946Y-61520001D02*
G01*
X89484211Y-61563266D01*
X89495001Y-61608211D01*
X89495001Y-61690312D01*
X89495610Y-61698054D01*
X89509312Y-61784570D01*
X89514067Y-61799203D01*
X89567215Y-61903514D01*
X89576257Y-61915959D01*
X89625487Y-61965189D01*
X89653264Y-62019706D01*
X89643693Y-62080138D01*
X89625490Y-62105193D01*
X88836728Y-62893955D01*
X88782211Y-62921732D01*
X88721779Y-62912161D01*
X88678514Y-62868896D01*
X88667724Y-62823951D01*
X88667724Y-62237488D01*
X88686631Y-62179297D01*
X88696720Y-62167484D01*
X89325997Y-61538207D01*
X89380514Y-61510430D01*
X89440946Y-61520001D01*
G37*
%TD.AperFunction*%
%TA.AperFunction,Conductor*%
G36*
X92329245Y-58631702D02*
G01*
X92372510Y-58674967D01*
X92383300Y-58719912D01*
X92383300Y-61674110D01*
X92364393Y-61732301D01*
X92348466Y-61749501D01*
X92344782Y-61752636D01*
X92338819Y-61756399D01*
X92253396Y-61853122D01*
X92198554Y-61969932D01*
X92178701Y-62097440D01*
X92179616Y-62104437D01*
X92179616Y-62104438D01*
X92181375Y-62117891D01*
X92195433Y-62225394D01*
X92198272Y-62231846D01*
X92198273Y-62231850D01*
X92218944Y-62278829D01*
X92225074Y-62339706D01*
X92194250Y-62392560D01*
X92138246Y-62417202D01*
X92128328Y-62417700D01*
X91845627Y-62417700D01*
X91787436Y-62398793D01*
X91751472Y-62349293D01*
X91751472Y-62288107D01*
X91772229Y-62252265D01*
X91787187Y-62235739D01*
X91787189Y-62235736D01*
X91791922Y-62230507D01*
X91848188Y-62114375D01*
X91869597Y-61987120D01*
X91869733Y-61976000D01*
X91851439Y-61848259D01*
X91806536Y-61749501D01*
X91800949Y-61737212D01*
X91800948Y-61737211D01*
X91798028Y-61730788D01*
X91713793Y-61633028D01*
X91707876Y-61629193D01*
X91707874Y-61629191D01*
X91611424Y-61566677D01*
X91605506Y-61562841D01*
X91598750Y-61560821D01*
X91598749Y-61560820D01*
X91523137Y-61538207D01*
X91481873Y-61525866D01*
X91405244Y-61525398D01*
X91359882Y-61525121D01*
X91352831Y-61525078D01*
X91346054Y-61527015D01*
X91346053Y-61527015D01*
X91235535Y-61558601D01*
X91235533Y-61558602D01*
X91228755Y-61560539D01*
X91119619Y-61629399D01*
X91034196Y-61726122D01*
X91031200Y-61732504D01*
X91027326Y-61738401D01*
X91024814Y-61736751D01*
X90991756Y-61772005D01*
X90931663Y-61783513D01*
X90876282Y-61757502D01*
X90846767Y-61703906D01*
X90845000Y-61685285D01*
X90845000Y-61558180D01*
X90840878Y-61545495D01*
X90836757Y-61542500D01*
X90169000Y-61542500D01*
X90110809Y-61523593D01*
X90074845Y-61474093D01*
X90070000Y-61443500D01*
X90070000Y-61441500D01*
X90088907Y-61383309D01*
X90138407Y-61347345D01*
X90169000Y-61342500D01*
X90829319Y-61342500D01*
X90842004Y-61338378D01*
X90844999Y-61334257D01*
X90844999Y-61194688D01*
X90844390Y-61186946D01*
X90830688Y-61100430D01*
X90825933Y-61085797D01*
X90772785Y-60981486D01*
X90763743Y-60969041D01*
X90680959Y-60886257D01*
X90668514Y-60877215D01*
X90564204Y-60824067D01*
X90549569Y-60819312D01*
X90463053Y-60805609D01*
X90455314Y-60805000D01*
X90298212Y-60805000D01*
X90240021Y-60786093D01*
X90204057Y-60736593D01*
X90204057Y-60675407D01*
X90228208Y-60635996D01*
X92214296Y-58649908D01*
X92268813Y-58622131D01*
X92329245Y-58631702D01*
G37*
%TD.AperFunction*%
%TA.AperFunction,Conductor*%
G36*
X85305626Y-54842428D02*
G01*
X86043896Y-54844632D01*
X86102030Y-54863713D01*
X86137845Y-54913321D01*
X86142600Y-54943632D01*
X86142600Y-55251840D01*
X86143548Y-55261462D01*
X86152302Y-55305474D01*
X86159621Y-55323142D01*
X86192989Y-55373082D01*
X86206518Y-55386611D01*
X86257201Y-55420476D01*
X86295081Y-55468526D01*
X86301200Y-55502792D01*
X86301200Y-55586520D01*
X86305322Y-55599205D01*
X86309443Y-55602200D01*
X86710520Y-55602200D01*
X86723205Y-55598078D01*
X86726200Y-55593957D01*
X86726200Y-54983697D01*
X86741423Y-54936846D01*
X86742600Y-54929411D01*
X86742600Y-54846718D01*
X86942600Y-54847315D01*
X86942600Y-55430503D01*
X86927377Y-55477354D01*
X86926200Y-55484789D01*
X86926200Y-55586520D01*
X86930322Y-55599205D01*
X86934443Y-55602200D01*
X87335520Y-55602200D01*
X87348205Y-55598078D01*
X87351200Y-55593957D01*
X87351200Y-55518248D01*
X87370107Y-55460057D01*
X87412315Y-55426783D01*
X87428745Y-55419978D01*
X87478682Y-55386611D01*
X87492211Y-55373082D01*
X87525579Y-55323142D01*
X87532898Y-55305474D01*
X87541652Y-55261462D01*
X87542600Y-55251840D01*
X87542600Y-54948402D01*
X87561507Y-54890211D01*
X87611007Y-54854247D01*
X87641895Y-54849402D01*
X88125396Y-54850845D01*
X88183530Y-54869926D01*
X88219345Y-54919533D01*
X88224100Y-54949845D01*
X88224100Y-55251820D01*
X88232833Y-55295722D01*
X88266096Y-55345504D01*
X88274206Y-55350923D01*
X88307370Y-55373082D01*
X88315878Y-55378767D01*
X88325438Y-55380669D01*
X88325439Y-55380669D01*
X88355017Y-55386553D01*
X88355022Y-55386553D01*
X88359780Y-55387500D01*
X88401700Y-55387500D01*
X88459891Y-55406407D01*
X88495855Y-55455907D01*
X88500700Y-55486500D01*
X88500700Y-56242020D01*
X88501647Y-56246778D01*
X88501647Y-56246783D01*
X88502618Y-56251662D01*
X88509433Y-56285922D01*
X88514849Y-56294027D01*
X88514849Y-56294028D01*
X88527754Y-56313342D01*
X88542696Y-56335704D01*
X88550806Y-56341123D01*
X88583970Y-56363282D01*
X88592478Y-56368967D01*
X88602038Y-56370869D01*
X88602039Y-56370869D01*
X88631617Y-56376753D01*
X88631622Y-56376753D01*
X88636380Y-56377700D01*
X89033695Y-56377700D01*
X89091886Y-56396607D01*
X89103699Y-56406696D01*
X89963708Y-57266706D01*
X89991485Y-57321223D01*
X89984147Y-57372930D01*
X89984860Y-57373148D01*
X89983473Y-57377686D01*
X89983316Y-57378786D01*
X89979800Y-57386276D01*
X89978715Y-57393247D01*
X89978714Y-57393249D01*
X89972108Y-57435678D01*
X89959947Y-57513784D01*
X89960862Y-57520781D01*
X89960862Y-57520784D01*
X89970016Y-57590789D01*
X89958813Y-57650940D01*
X89941856Y-57673629D01*
X88822750Y-58792735D01*
X88818990Y-58796302D01*
X88789691Y-58822683D01*
X88785459Y-58832189D01*
X88780585Y-58843136D01*
X88773171Y-58856791D01*
X88760974Y-58875572D01*
X88759346Y-58885849D01*
X88756554Y-58893123D01*
X88754932Y-58900753D01*
X88750700Y-58910258D01*
X88750700Y-58932651D01*
X88749481Y-58948137D01*
X88745978Y-58970255D01*
X88748670Y-58980301D01*
X88749122Y-58988929D01*
X88750700Y-59000913D01*
X88750700Y-59077700D01*
X88731793Y-59135891D01*
X88682293Y-59171855D01*
X88651700Y-59176700D01*
X88636380Y-59176700D01*
X88631622Y-59177647D01*
X88631617Y-59177647D01*
X88602039Y-59183531D01*
X88602038Y-59183531D01*
X88592478Y-59185433D01*
X88584373Y-59190849D01*
X88584372Y-59190849D01*
X88581358Y-59192863D01*
X88542696Y-59218696D01*
X88509433Y-59268478D01*
X88500700Y-59312380D01*
X88500700Y-60392020D01*
X88509433Y-60435922D01*
X88514849Y-60444027D01*
X88514849Y-60444028D01*
X88527754Y-60463342D01*
X88542696Y-60485704D01*
X88550806Y-60491123D01*
X88583970Y-60513282D01*
X88592478Y-60518967D01*
X88602038Y-60520869D01*
X88602039Y-60520869D01*
X88631617Y-60526753D01*
X88631622Y-60526753D01*
X88636380Y-60527700D01*
X89022705Y-60527700D01*
X89080896Y-60546607D01*
X89116860Y-60596107D01*
X89116860Y-60657293D01*
X89092709Y-60696704D01*
X88924350Y-60865063D01*
X88920590Y-60868630D01*
X88906469Y-60881345D01*
X88891291Y-60895011D01*
X88887059Y-60904517D01*
X88882185Y-60915464D01*
X88874771Y-60929119D01*
X88862574Y-60947900D01*
X88862438Y-60948757D01*
X88845214Y-60975281D01*
X88013774Y-61806721D01*
X88010014Y-61810288D01*
X87980715Y-61836669D01*
X87975555Y-61848259D01*
X87971609Y-61857122D01*
X87964193Y-61870780D01*
X87957246Y-61881476D01*
X87909694Y-61919979D01*
X87848592Y-61923177D01*
X87804217Y-61897556D01*
X86652864Y-60746204D01*
X86625087Y-60691687D01*
X86634658Y-60631255D01*
X86677923Y-60587990D01*
X86696120Y-60583621D01*
X86695608Y-60582045D01*
X86723205Y-60573078D01*
X86726200Y-60568957D01*
X86726200Y-60561520D01*
X86926200Y-60561520D01*
X86930322Y-60574205D01*
X86934443Y-60577200D01*
X87166040Y-60577200D01*
X87175662Y-60576252D01*
X87219674Y-60567498D01*
X87237342Y-60560179D01*
X87287282Y-60526811D01*
X87300811Y-60513282D01*
X87334179Y-60463342D01*
X87341498Y-60445674D01*
X87350252Y-60401662D01*
X87351200Y-60392040D01*
X87351200Y-59967880D01*
X87347078Y-59955195D01*
X87342957Y-59952200D01*
X86941880Y-59952200D01*
X86929195Y-59956322D01*
X86926200Y-59960443D01*
X86926200Y-60561520D01*
X86726200Y-60561520D01*
X86726200Y-59736520D01*
X86926200Y-59736520D01*
X86930322Y-59749205D01*
X86934443Y-59752200D01*
X87335520Y-59752200D01*
X87348205Y-59748078D01*
X87351200Y-59743957D01*
X87351200Y-59312360D01*
X87350252Y-59302738D01*
X87341498Y-59258726D01*
X87334179Y-59241058D01*
X87300811Y-59191118D01*
X87287282Y-59177589D01*
X87237342Y-59144221D01*
X87219674Y-59136902D01*
X87175662Y-59128148D01*
X87166040Y-59127200D01*
X86941880Y-59127200D01*
X86929195Y-59131322D01*
X86926200Y-59135443D01*
X86926200Y-59736520D01*
X86726200Y-59736520D01*
X86726200Y-59142880D01*
X86722078Y-59130195D01*
X86717957Y-59127200D01*
X86625700Y-59127200D01*
X86567509Y-59108293D01*
X86531545Y-59058793D01*
X86526700Y-59028200D01*
X86526700Y-57784226D01*
X86528603Y-57764911D01*
X86529706Y-57759366D01*
X86529706Y-57759362D01*
X86531608Y-57749800D01*
X86517567Y-57679214D01*
X86512166Y-57652060D01*
X86456801Y-57569199D01*
X86443990Y-57560639D01*
X86428987Y-57548327D01*
X85776273Y-56895613D01*
X85763961Y-56880610D01*
X85760818Y-56875906D01*
X85760817Y-56875905D01*
X85755401Y-56867799D01*
X85702339Y-56832345D01*
X85702337Y-56832342D01*
X85702336Y-56832343D01*
X85672541Y-56812434D01*
X85574800Y-56792992D01*
X85565238Y-56794894D01*
X85559688Y-56795998D01*
X85540374Y-56797900D01*
X84244250Y-56797900D01*
X84186059Y-56778993D01*
X84169251Y-56763523D01*
X84123798Y-56710772D01*
X84123797Y-56710771D01*
X84119193Y-56705428D01*
X84113276Y-56701593D01*
X84113274Y-56701591D01*
X84058273Y-56665942D01*
X84019726Y-56618425D01*
X84013121Y-56582294D01*
X84015088Y-56242040D01*
X86301200Y-56242040D01*
X86302148Y-56251662D01*
X86310902Y-56295674D01*
X86318221Y-56313342D01*
X86351589Y-56363282D01*
X86365118Y-56376811D01*
X86415058Y-56410179D01*
X86432726Y-56417498D01*
X86476738Y-56426252D01*
X86486360Y-56427200D01*
X86710520Y-56427200D01*
X86723205Y-56423078D01*
X86726200Y-56418957D01*
X86726200Y-56411520D01*
X86926200Y-56411520D01*
X86930322Y-56424205D01*
X86934443Y-56427200D01*
X87166040Y-56427200D01*
X87175662Y-56426252D01*
X87219674Y-56417498D01*
X87237342Y-56410179D01*
X87287282Y-56376811D01*
X87300811Y-56363282D01*
X87334179Y-56313342D01*
X87341498Y-56295674D01*
X87350252Y-56251662D01*
X87351200Y-56242040D01*
X87351200Y-55817880D01*
X87347078Y-55805195D01*
X87342957Y-55802200D01*
X86941880Y-55802200D01*
X86929195Y-55806322D01*
X86926200Y-55810443D01*
X86926200Y-56411520D01*
X86726200Y-56411520D01*
X86726200Y-55817880D01*
X86722078Y-55805195D01*
X86717957Y-55802200D01*
X86316880Y-55802200D01*
X86304195Y-55806322D01*
X86301200Y-55810443D01*
X86301200Y-56242040D01*
X84015088Y-56242040D01*
X84021606Y-55114446D01*
X84042758Y-55053854D01*
X84097881Y-54983697D01*
X84181604Y-54877141D01*
X84232421Y-54843067D01*
X84259743Y-54839306D01*
X85305626Y-54842428D01*
G37*
%TD.AperFunction*%
%TA.AperFunction,Conductor*%
G36*
X85019896Y-57317807D02*
G01*
X85055860Y-57367307D01*
X85055860Y-57428493D01*
X85019896Y-57477993D01*
X85014538Y-57481623D01*
X84922019Y-57539999D01*
X84836596Y-57636722D01*
X84781754Y-57753532D01*
X84761901Y-57881040D01*
X84764892Y-57903909D01*
X84767882Y-57926777D01*
X84756680Y-57986928D01*
X84739722Y-58009617D01*
X84618615Y-58130725D01*
X84603614Y-58143036D01*
X84590799Y-58151599D01*
X84585381Y-58159708D01*
X84585379Y-58159710D01*
X84578673Y-58169747D01*
X84561627Y-58195259D01*
X84535434Y-58234459D01*
X84533532Y-58244022D01*
X84533531Y-58244024D01*
X84521577Y-58304120D01*
X84515992Y-58332200D01*
X84517894Y-58341762D01*
X84518998Y-58347312D01*
X84520900Y-58366626D01*
X84520900Y-58505171D01*
X84501993Y-58563362D01*
X84452493Y-58599326D01*
X84391300Y-58599323D01*
X84106699Y-58506827D01*
X84054927Y-58467591D01*
X84041745Y-58447817D01*
X84019476Y-58414414D01*
X84002851Y-58358927D01*
X84002951Y-58341762D01*
X84007720Y-57516638D01*
X84026963Y-57458557D01*
X84054915Y-57432846D01*
X84110724Y-57398579D01*
X84115549Y-57393249D01*
X84171473Y-57331464D01*
X84224541Y-57301010D01*
X84244871Y-57298900D01*
X84961705Y-57298900D01*
X85019896Y-57317807D01*
G37*
%TD.AperFunction*%
%TD*%
M02*
